<?xml version="1.0" encoding="UTF-8"?>
<svg version="1.1" viewBox="0 0 1600 400" width="1280" height="1280" xmlns="http://www.w3.org/2000/svg">
<path transform="translate(0)" d="m0 0h1600v400h-1600z" fill="#010B0D"/>
<path transform="translate(901)" d="m0 0h699v400h-623l6-7 12-13 8-8 7-8 9-9 7-8 8-8 3-4 1-5-4-2-10-8-2-4v-6l-4-5-3 1-4 5-7-1-5-4-1-3 3-10 2-4-3-5-14-15-9-11-6-10-2-5v-6l10 2 3-1 8 4 9 6-11-23v-2l-2-1-8-16-2-1v8l-3 4-5-1-4-2-9 1-5-3-3-4-3-10-1-13 3-7 6-5 6-2-1-8-17-33-10-19-13-25-8-16-2-5-6-5-7-2 1-9 5-11z" fill="#0B555F"/>
<path transform="translate(1388)" d="m0 0h212v168l-15 11-16 11-20 14-23 16-32 22-23 16-12 8-34 23-4-2-11-30-15-40-18-45-6-23-4-11-6-16-5-11v-10l7-24 7-26 9-31 8-19z" fill="#010B0D"/>
<path transform="translate(1087,248)" d="m0 0h43l31 1h29l26-1h46v3l-10 4h-2l-2-4h-3l2 6-18 6-2-1-1 2-10 4-5 1-3 2-5 1 1-3-1-2-1 6-5 1h-1l-3 2-31 11-5 2-7 2-12 5-14 5-24 9-30 10-12 5-9 3 6-1 47-16 3 1-24 9-26 9h-4l1 2 46-15 41-14 49-16 25-9 51-17 27-8 8-2 2 3 4 44 2 18v9l1 1v10l1 1v11h1v8l1 2 1 19 1 3v9l1 2v8l-1 1h-329l6-7 12-13 10-10 7-8 13-13 7-8 2-2-2-2-1-9-7-11-4-7 1-3v-4l-12-25-8-18-3-6 1-3 8 16 12 25 9 19 6 10 1 1 3-16 3-7 2-5h1l-1 19 11-37 3-7 4-13 3 2 2-4h-3v-2l8-2z" fill="#010B0D"/>
<path transform="translate(1599,175)" d="m0 0h1v170l-7-1-57-17-50-15-26-8-29-9-2-2 18-13 40-28 16-11 23-16 67-46z" fill="#010B0D"/>
<path transform="translate(1087,248)" d="m0 0h43l31 1h29l26-1h46v3l-10 4h-2l-2-4h-3l2 6-18 6-2-1-1 2-10 4-5 1-3 2-5 1 1-3-1-2-1 6-5 1h-1l-3 2-31 11-5 2-7 2-12 5-14 5-24 9-30 10-12 5-9 3 6-1 47-16 3 1-24 9-26 9h-4l1 5 10 10 8 7 7 7 8 7 12 11 15 14 8 8v1h-136l6-7 12-13 10-10 7-8 13-13 7-8 2-2-2-2-1-9-7-11-4-7 1-3v-4l-12-25-8-18-3-6 1-3 8 16 12 25 9 19 6 10 1 1 3-16 3-7 2-5h1l-1 19 11-37 3-7 4-13 3 2 2-4h-3v-2l8-2z" fill="#010B0D"/>
<path transform="translate(1315,254)" d="m0 0 7 1 20 8 34 15 29 13 10 5 2 5-7 24-5 20-6 21-9 33-1 1h-65l-2-21v-13l-1-2-3-43v-14l-1-2v-20h-1l-1-19z" fill="#010B0D"/>
<path transform="translate(1423,301)" d="m0 0 5 1 24 13 23 13 27 15 17 10 27 16 28 15 20 10 6 4v2h-205l4-16 17-62 6-20z" fill="#010B0D"/>
<path transform="translate(1599,168)" d="m0 0h1v7l-17 12-22 15-32 22-23 16-16 11-23 16-34 24-3 2 10 4 39 12 17 5 53 16 51 15v53l-16-8-35-18-20-12-22-13-23-13-27-15-22-12-9-5h-3l-14 49-13 47-1 2-4-1 14-53 7-25 5-18-1-7-4-4-21-10-1-2 9 3 11 5-3-5-10-11-7-8-12-14-11-13-7-8-9-11 1-2 13 13 7 8 24 26 11 12 5 6 2 1-4-10 1-2 7 14 3 5h6l14-10 16-11 5-5 19-13 23-16 32-22 20-14 23-16z" fill="#0B5660"/>
<path transform="translate(965)" d="m0 0h112l15 11 15 10 8 6 7 7v3l-4 1-16 1h-64l-5-1v2h-55l-9-5-6-20-3-5 2-5z" fill="#010B0D"/>
<path transform="translate(1e3 251)" d="m0 0 3 3 16 33 7 16 10 18 1 1 3-16 3-7 2-5h1l-1 18-2 16 7-1 47-16 3 1-24 9-26 9h-4l1 5 10 10 8 7 7 7 8 7 12 11 15 14 8 8v1h-136l6-7 12-13 10-10 7-8 13-13 7-8 2-2-2-2-1-9-7-11-4-7 1-3v-4l-12-25-8-18-3-6z" fill="#23828F"/>
<path transform="translate(1243,11)" d="m0 0 2 2v6l9 3 9 6 8 8 2 1v2h2l9 11 14 7 9 4 1 2-3 3h-11l-15-2h-14l-31 4h-10l-5-4-4-4-20-6-16-5-17-5-14 1-4 4-5 2-9-1-1-4 2-7 2-1h7l3 1h12l12-2 6-4 31-11 5-5 21-4 11-1z" fill="#2C92A0"/>
<path transform="translate(1260,133)" d="m0 0 5 1 12 11v2h2l5 5 14 15 6 8v13l-3 34h-2l-7-8-7-7-9-11-12-13-7-8-11-13-10-13 1-4 10-7z" fill="#010C0E"/>
<path transform="translate(1041,339)" d="m0 0h3l7 18 14 41v2h-81l6-7 12-13 10-10 7-8 13-13 7-8z" fill="#010B0D"/>
<path transform="translate(1454,308)" d="m0 0 16 4 85 25 43 13 2 1v33l-6-2-23-12-18-10-48-24-23-12-19-10-9-5z" fill="#010B0D"/>
<path transform="translate(1513)" d="m0 0h87v28l-5-2-13-11-9-3-10 10-10 5h-10l-9-1-12 5-13 3-5 2-10-2-1-2v-7l7-9 9-10z" fill="#0B5660"/>
<path transform="translate(992,187)" d="m0 0 5 1 5 4 10 15 10 13 7 8 4 6v7l-9 15-1 2 1 12 5-2 7-7 4 4 1 4v49l-3-4-10-21-3-8-3-7-8-17-9-19-8-16-8-19-4-9v-6z" fill="#010B0D"/>
<path transform="translate(1599,168)" d="m0 0h1v7l-17 12-22 15-32 22-23 16-16 11-23 16-14 10-7 3-16 11h-2l-1 4 10 3 29 9 35 10 6 2 2 3-7-1-43-13-11-3h-6l5 3-2 1-19-9-5 2-22 80-5 18-3-1 14-53 7-25 5-18-1-7-4-4-21-10-1-2 9 3 11 5-3-5-10-11-7-8-12-14-11-13-7-8-9-11 1-2 13 13 7 8 24 26 11 12 5 6 2 1-4-10 1-2 7 14 3 5h6l14-10 16-11 5-5 19-13 23-16 32-22 20-14 23-16z" fill="#409FAC"/>
<path transform="translate(1228,15)" d="m0 0 3 1 3 6 10 2 11 4 6 5 6 15v2l4 2 3 3-1 3-14 2-13 3-10 1-9-2-7-4-2-2-26-6-6-3 1-3h18l5 1h11l6-5v-6l-4-6v-2l-10-3 1-4z" fill="#47A4B0"/>
<path transform="translate(1159,190)" d="m0 0 7 1-1 5-5 12-4 12-3 10-5 3-20 2h-43l-2-1 2-4 22-12 17-10 29-16z" fill="#010B0D"/>
<path transform="translate(0)" d="m0 0h42l-2 6-10 19-12 23-16 31-2 1z" fill="#010B0D"/>
<path transform="translate(1320,62)" d="m0 0h5l9 6 8 7v11l-5 34-2 6-1 14-4 17-4 14v7l3 6v7l-8 2-4 9h-2l-1-4 1-11-3-8v-8l4-3h2l5-26 7-27 2-13 2-7v-7l-9-1-6-5-5-9 1-7z" fill="#2C92A0"/>
<path transform="translate(910)" d="m0 0h47l-2 4-5 4-8 5-8 8-8 7-8 8v13l1 2v7l-10-2-4-5v-8l4-10z" fill="#47A4B0"/>
<path transform="translate(1051,343)" d="m0 0 8 6 11 11 8 7 13 13 8 7 12 11 1 2h-39l-5-11-16-41z" fill="#010B0D"/>
<path transform="translate(1179,132)" d="m0 0 4 2 1 11-5 6-19 13-9 6-28 17-17 11h-3l2-5 11-10h2v-2l11-9 5-4 5-5 11-9 7-7 13-10 6-4z" fill="#010B0D"/>
<path transform="translate(1067,195)" d="m0 0h2l-3 9-3 8 6-8 1 3-2 6-1 13 2 2-2 6 3 1-1 4-6 5-12 6-4 1-5-5-3-5 2-14 3-1 7 1v-10l4-9 4-7z" fill="#2B919F"/>
<path transform="translate(1599,168)" d="m0 0h1v7l-17 12-22 15-32 22-23 16-16 11-23 16-3 1v-3l-6 2 5-5 18-12 23-16 32-22 20-14 23-16z" fill="#0B5660"/>
<path transform="translate(1408)" d="m0 0h73l-3 10-4 4-15 2-13-1-12-4-12-6-12-2-2-1z" fill="#0B5660"/>
<path transform="translate(950,119)" d="m0 0 4 2 14 20 9 14 7 16 6 8v4l-10-1-4-5-6-12-6-9-2-5-3-6-2-5-7-15z" fill="#010B0D"/>
<path transform="translate(1e3 251)" d="m0 0 3 3 16 33 7 16 10 18 1 1 3-16 3-7 2-5h1l-1 18-2 16 7-1 47-16 3 1-24 9-26 9h-4l-2 11-2-2-7-1-1-1-1-9-7-11-4-7 1-3v-4l-12-25-8-18-3-6z" fill="#3D9DAA"/>
<path transform="translate(954,14)" d="m0 0 2 3 4 12 2 4-1 5-3 2h-31l1-4 5-4 4-5 8-8z" fill="#010B0D"/>
<path transform="translate(977,346)" d="m0 0 1 4-7 12-8 14-11 18-4 6h-11l8-14 11-15 14-19h2v-2z" fill="#0B5660"/>
<path transform="translate(1038,335)" d="m0 0 2 2 4 2-5 3-15 16-10 10-7 8-12 12-7 8-4 4h-7l6-7 12-13 8-8 7-8 9-9 7-8z" fill="#0C5862"/>
<path transform="translate(37)" d="m0 0h5l-2 6-10 19-12 23-16 31-2 1v-10l10-19 8-15 8-16z" fill="#0B5660"/>
<path transform="translate(1599,168)" d="m0 0h1v7l-17 12-22 15-16 11-4 1-2-2 4-5 16-11 20-14z" fill="#22818E"/>
<path transform="translate(1060,223)" d="m0 0h3l-1 6-1 3 2 5h2l-1 4-12 6-1 2-4-1-5-5-1-7 3-6h5l1 3 5-5z" fill="#47A4B0"/>
<path transform="translate(1418,301)" d="m0 0 3 1-22 80-5 18-3-1 14-53 7-25 5-18z" fill="#2C92A0"/>
<path transform="translate(910)" d="m0 0h2v31l-3 9-2 4v6l2 3h7l-1-8v-9l5-6 8-7 15-14 10-6 4-3-2 4-5 4-8 5-8 8-8 7-8 8v13l1 2v7l-10-2-4-5v-8l4-10z" fill="#2C92A0"/>
<path transform="translate(1055,356)" d="m0 0 2 2 11 28v3l2 1 3 10h-8l-11-32 1-3 5 10-5-16z" fill="#0B5660"/>
<path transform="translate(1303,231)" d="m0 0 4 1 5 3 1 2v8l-2 2h-9l-6-5 1-5z" fill="#47A4B0"/>
<path transform="translate(1207,107)" d="m0 0h6l4 6v2l4 2 3 3-2 4-4 2-13-13v-5z" fill="#010B0D"/>
<path transform="translate(1437,299)" d="m0 0 7 1 15 5 42 12 6 2 2 3-7-1-43-13-15-4v-2l-5-1z" fill="#2C92A0"/>
<path transform="translate(1049,333)" d="m0 0 7 6 17 16 14 13 8 7 17 16 8 8h-3l-13-13-8-7-15-14-8-6-11-11-8-7-5-6z" fill="#0B5660"/>
<path transform="translate(1044,338)" d="m0 0 4 1 5 3 6 7-4-2-3-2 3 8 4 16 2 9-2-2-4-9v-2h-2l-9-24z" fill="#22808D"/>
<path transform="translate(1317,172)" d="m0 0 5 1 5 10-1 6h-6l-5-5-1-8z" fill="#47A4B0"/>
<path transform="translate(1461,265)" d="m0 0h3l-1 5-10 7-7 3-16 11h-2l-1 2-1-3 12-9 19-13z" fill="#278997"/>
<path transform="translate(1182,34)" d="m0 0h8l1 3-4 4-4 1h-14l-3-1 1-3z" fill="#0B5660"/>
<path transform="translate(1599,168)" d="m0 0h1v7l-17 12-13 9-2-1 16-12 13-9-3 1-24 16-2-1 11-8z" fill="#0B5660"/>
<path transform="translate(1e3 251)" d="m0 0 3 3 16 33 7 16 1 4-2 4-2 1-1-5 2 1-3-10-12-24-5-12-4-8z" fill="#2C92A0"/>
<path transform="translate(1134,39)" d="m0 0h6l5 4-1 4-4 2h-7l-2-1v-6z" fill="#47A4B0"/>
<path transform="translate(1026,203)" d="m0 0 4 2 7 10 2 4v4l-4-1-4-5-5-10z" fill="#2C92A0"/>
<path transform="translate(1012,155)" d="m0 0 4 1 2 2 1 8-1 2-4-1-3-4v-7z" fill="#2C92A0"/>
<path transform="translate(1328,137)" d="m0 0 3 1-2 13-2 6h-2v-12z" fill="#47A4B0"/>
<path transform="translate(1303,231)" d="m0 0 4 1 5 3 1 2v8l-2 2h-9l-6-5 1-5zm0 2-5 5 1 5 4 3h7l2-2v-6l-6-5z" fill="#2C92A0"/>
<path transform="translate(1e3 251)" d="m0 0 3 3 12 25v3h-2l-5-11-8-17z" fill="#2F94A2"/>
<path transform="translate(1351,216)" d="m0 0 5 3 7 8 6 8-2 2-7-8-9-11z" fill="#2C92A0"/>
<path transform="translate(1061,208)" d="m0 0h1l-1 7h-2l-2 6-3 2v-6l4-6z" fill="#44A2AE"/>
<path transform="translate(1283,185)" d="m0 0 1 4v5l-3 1-7-3v-1l6-2z" fill="#0B5660"/>
<path transform="translate(1321,289)" d="m0 0h2v2h5l-5 4-4 4v-9z" fill="#0B5660"/>
<path transform="translate(1174,301)" d="m0 0h6l-3 3-8 3-5 3-2-1 5-4z" fill="#0B5660"/>
<path transform="translate(1041,234)" d="m0 0 1 2 1 7 5 5 3 2-4 1-5-5-3-5 1-6z" fill="#2C92A0"/>
<path transform="translate(1372,57)" d="m0 0h1l1 7 5 2 3 5-1 2-8-7-2-5z" fill="#0B5660"/>
<path transform="translate(1086,373)" d="m0 0 4 2 13 12h-3l-3-3-4-2-7-8z" fill="#3D9BA7"/>
<path transform="translate(1410,270)" d="m0 0 3 3 5 11-1 2-4-4z" fill="#2C92A0"/>
<path transform="translate(1411,246)" d="m0 0 2 3 4 8 2 5-4-4-5-6z" fill="#0B5660"/>
<path transform="translate(1240,181)" d="m0 0 5 1v4l-2 1-4-4z" fill="#010B0D"/>
</svg>
